<svg xmlns="http://www.w3.org/2000/svg" viewBox="0 0 120 60" enable-background="new 0 0 120 60"><style type="text/css">.st0{fill:#33485C;} .st1{fill:#43B07E;}</style><path class="st0" d="M28.4 47.9c1.4-.5 2.6-1.2 3.6-2s1.8-1.9 2.3-3c.5-1.2.8-2.4.8-3.8s-.2-2.5-.6-3.5c-.4-1-1-1.8-1.6-2.6-.7-.7-1.5-1.3-2.4-1.9-.9-.5-1.9-1-2.9-1.5l-5.4-2.4c-.6-.3-1.3-.6-2.1-1-.7-.4-1.4-.8-2-1.3-.6-.5-1.1-1.1-1.5-1.9-.4-.7-.6-1.6-.6-2.6 0-1.9.7-3.5 2.2-4.6 1.4-1.2 3.3-1.7 5.7-1.7 1.8 0 3.4.3 4.8 1s2.6 1.5 3.7 2.6l1.4-1.6c-1.1-1.2-2.5-2.2-4.1-3-1.7-.8-3.6-1.3-5.8-1.3-1.5 0-2.9.2-4.1.6-1.3.4-2.4 1-3.3 1.8-.9.8-1.6 1.7-2.2 2.8-.5 1.1-.8 2.2-.8 3.5 0 1.3.2 2.5.7 3.4.5 1 1.1 1.8 1.8 2.5s1.5 1.3 2.3 1.8c.9.5 1.7.9 2.4 1.2l5.4 2.4c.9.4 1.7.8 2.5 1.2.8.4 1.4.9 2 1.4.6.6 1 1.2 1.4 2 .3.8.5 1.7.5 2.8 0 2.1-.8 3.8-2.4 5.2-1.6 1.3-3.7 2-6.5 2-2.1 0-4-.4-5.8-1.3-1.8-.9-3.3-2-4.6-3.5l-1.6 1.7c1.4 1.6 3.1 2.9 5.1 3.9 2 1 4.3 1.5 6.9 1.5 1.8-.1 3.4-.3 4.8-.8zM41.6 48v-15.3h6.7c4 0 7.1-.9 9.3-2.6 2.2-1.7 3.3-4.3 3.3-7.8 0-1.8-.3-3.4-.9-4.6-.6-1.3-1.4-2.3-2.5-3.1-1.1-.8-2.4-1.4-4.1-1.7-1.6-.3-3.4-.5-5.4-.5h-9v35.6h2.6zm0-33.5h5.9c3.7 0 6.4.6 8.2 1.7 1.8 1.1 2.7 3.2 2.7 6.2 0 2.9-.9 5-2.6 6.3-1.8 1.3-4.5 1.9-8.1 1.9h-6.1v-16.1zM70.3 20.9c.6-1.9 1.3-4 1.9-6.2h.2c.6 2.2 1.2 4.3 1.9 6.2.6 1.9 1.3 4 2.1 6.1l2.3 6.6h-12.8l2.3-6.6c.7-2.1 1.4-4.1 2.1-6.1zm-9.3 27.1l4.2-12.2h14.1l4.1 12.2h2.6l-12.5-35.6h-2.5l-12.5 35.6h2.5z"/><path class="st1" d="M88.7 48l6.2-10.9 1.5-2.7c.5-.9 1-1.9 1.6-3h.2c.6 1.1 1.2 2.1 1.8 3l1.5 2.7 6.2 10.9h2.7l-10.7-18.3 9.9-17.3h-2.5l-5.8 10.5c-.5.8-.9 1.6-1.3 2.3l-1.3 2.5h-.2c-.6-1-1.1-1.8-1.5-2.5-.4-.7-.9-1.5-1.4-2.3l-5.8-10.5h-2.7l9.9 17.2-10.8 18.4h2.5z"/></svg>